# xmcd
#
# Track frame offsets:
#	150
#	17384
#	30379
#	47067
#	66408
#	85143
#	101459
#	114560
#	129953
#	146321
#	164952
#	180594
#
# Disc length: 2633 seconds
#
# Revision: 0
# Processed by: cddbd v1.5.2PL0 Copyright (c) Steve Scherf et al.
# Submitted via: EasyCDDAExtractor 10.5.1.1
#
DISCID=970a470c
DTITLE=Merle Haggard - The Bluegrass Sessions
DYEAR=2007
DGENRE=Country
TTITLE0=Runaway Mama
TTITLE1=Pray
TTITLE2=What Happened
TTITLE3=Jimmie Rodgers Blues
TTITLE4=Learning To Live With Myself
TTITLE5=Mama's Hungry Eyes
TTITLE6=I Wonder Where To Find You
TTITLE7=Holding Things Together
TTITLE8=Big City
TTITLE9=Momma's Prayers
TTITLE10=Wouldn't That Be Something
TTITLE11=Blues Stay Away From Me
EXTD=
EXTT0=
EXTT1=
EXTT2=
EXTT3=
EXTT4=
EXTT5=
EXTT6=
EXTT7=
EXTT8=
EXTT9=
EXTT10=
EXTT11=
PLAYORDER=
